<svg xmlns="http://www.w3.org/2000/svg" width="736" height="610" viewBox="0 0 736 610" role="img" aria-labelledby="title desc">
  <title id="title">主流大模型 API 价格分布，普通线性坐标</title>
  <desc id="desc">横纵轴均为普通线性坐标，但横轴范围是零到十美元，纵轴范围是零到五十美元。</desc>
  <style>
    text { font-family: system-ui, -apple-system, BlinkMacSystemFont, "Segoe UI", sans-serif; fill: #e5e7eb; font-size: 12px; }
    .muted { fill: #94a3b8; }
    .grid { stroke: #334155; stroke-width: 1; opacity: .72; }
    .axis { stroke: #64748b; stroke-width: 1.2; }
    .leader { stroke: #64748b; stroke-width: 1; opacity: .75; }
    .name { font-weight: 600; }
  </style>
  <rect width="736" height="610" rx="14" fill="#111827"/>
  <g transform="translate(0 36)">
    <g class="grid">
      <path d="M78 28V460M195 28V460M311 28V460M428 28V460M545 28V460M661 28V460"/>
      <path d="M78 460H708M78 379H708M78 297H708M78 216H708M78 134H708M78 53H708"/>
    </g>
    <path class="axis" d="M78 28V460H708" fill="none"/>
    <g class="muted" text-anchor="middle">
      <text x="78" y="482">$0</text><text x="195" y="482">$2</text><text x="311" y="482">$4</text>
      <text x="428" y="482">$6</text><text x="545" y="482">$8</text><text x="661" y="482">$10</text>
    </g>
    <g class="muted" text-anchor="end">
      <text x="66" y="464">$0</text><text x="66" y="383">$10</text><text x="66" y="301">$20</text>
      <text x="66" y="220">$30</text><text x="66" y="138">$40</text><text x="66" y="57">$50</text>
    </g>
    <text class="muted" x="393" y="516" text-anchor="middle">输入价格（美元 / 百万 token）</text>
    <text class="muted" x="19" y="244" text-anchor="middle" transform="rotate(-90 19 244)">输出价格（美元 / 百万 token）</text>

    <g>
      <line class="leader" x1="369.7" y1="215.5" x2="386" y2="200"/><circle cx="369.7" cy="215.5" r="7" fill="#38bdf8" stroke="#111827" stroke-width="2"/>
      <text class="name" x="392" y="205">GPT-5.6 Sol<tspan class="muted" x="392" dy="15">$5 / $30</tspan></text>

      <line class="leader" x1="223.8" y1="337.7" x2="244" y2="280"/><circle cx="223.8" cy="337.7" r="7" fill="#38bdf8" stroke="#111827" stroke-width="2"/>
      <text class="name" x="250" y="285">GPT-5.6 Terra<tspan class="muted" x="250" dy="15">$2.5 / $15</tspan></text>

      <line class="leader" x1="136.3" y1="411.1" x2="244" y2="345"/><circle cx="136.3" cy="411.1" r="7" fill="#38bdf8" stroke="#111827" stroke-width="2"/>
      <text class="name" x="250" y="350">GPT-5.6 Luna<tspan class="muted" x="250" dy="15">$1 / $6</tspan></text>

      <line class="leader" x1="661.3" y1="52.5" x2="516" y2="91"/><rect x="655.3" y="46.5" width="12" height="12" transform="rotate(45 661.3 52.5)" fill="#fb923c" stroke="#111827" stroke-width="2"/>
      <text class="name" x="510" y="96" text-anchor="end">Claude Fable 5<tspan class="muted" x="510" dy="15">$10 / $50</tspan></text>

      <line class="leader" x1="369.7" y1="256.2" x2="386" y2="253"/><rect x="363.7" y="250.2" width="12" height="12" transform="rotate(45 369.7 256.2)" fill="#fb923c" stroke="#111827" stroke-width="2"/>
      <text class="name" x="392" y="258">Claude Opus 4.8<tspan class="muted" x="392" dy="15">$5 / $25</tspan></text>

      <line class="leader" x1="194.7" y1="378.5" x2="244" y2="313"/><rect x="188.7" y="372.5" width="12" height="12" transform="rotate(45 194.7 378.5)" fill="#fb923c" stroke="#111827" stroke-width="2"/>
      <text class="name" x="250" y="318">Claude Sonnet 5*<tspan class="muted" x="250" dy="15">$2 / $10</tspan></text>

      <line class="leader" x1="136.3" y1="419.2" x2="394" y2="325"/><rect x="130.3" y="413.2" width="12" height="12" transform="rotate(45 136.3 419.2)" fill="#fb923c" stroke="#111827" stroke-width="2"/>
      <text class="name" x="400" y="330">Claude Haiku 4.5<tspan class="muted" x="400" dy="15">$1 / $5</tspan></text>

      <line class="leader" x1="159.7" y1="424.1" x2="394" y2="360"/><path d="M159.7 416.1L166.7 430.1H152.7Z" fill="#4ade80" stroke="#111827" stroke-width="2"/>
      <text class="name" x="400" y="365">GLM-5.2<tspan class="muted" x="400" dy="15">$1.4 / $4.4</tspan></text>

      <line class="leader" x1="103.4" y1="452.9" x2="244" y2="415"/><path d="M103.4 444.9L110.4 458.9H96.4Z" fill="#4ade80" stroke="#111827" stroke-width="2"/>
      <text class="name" x="250" y="420">DeepSeek V4 Pro<tspan class="muted" x="250" dy="15">$0.435 / $0.87</tspan></text>

      <line class="leader" x1="86.2" y1="457.7" x2="244" y2="445"/><path d="M86.2 449.7L93.2 463.7H79.2Z" fill="#4ade80" stroke="#111827" stroke-width="2"/>
      <text class="name" x="250" y="450">DeepSeek V4 Flash<tspan class="muted" x="250" dy="15">$0.14 / $0.28</tspan></text>

      <line class="leader" x1="133.4" y1="427.4" x2="394" y2="395"/><path d="M133.4 419.4L140.4 433.4H126.4Z" fill="#4ade80" stroke="#111827" stroke-width="2"/>
      <text class="name" x="400" y="400">Kimi K2.7 Code<tspan class="muted" x="400" dy="15">$0.95 / $4</tspan></text>
    </g>
  </g>
  <g transform="translate(238 18)">
    <circle cx="0" cy="0" r="6" fill="#38bdf8"/><text x="11" y="4">OpenAI</text>
    <rect x="83" y="-5" width="10" height="10" transform="rotate(45 88 0)" fill="#fb923c"/><text x="101" y="4">Anthropic</text>
    <path d="M194 -7L200 5H188Z" fill="#4ade80"/><text x="206" y="4">国内模型</text>
  </g>
  <text class="muted" x="78" y="592">* Sonnet 5 为截至 2026-08-31 的推广价；均为标准按量基础价</text>
</svg>
